<svg xmlns="http://www.w3.org/2000/svg" viewBox="0 0 1600 900" role="img" aria-labelledby="t d"><title id="t">Digital community strategies</title><desc id="d">Abstract connected global digital community in dark teal and orange.</desc><defs><linearGradient id="bg" x1="0" y1="0" x2="1" y2="1"><stop stop-color="#001f24"/><stop offset="1" stop-color="#00515a"/></linearGradient><radialGradient id="glow" cx="70%" cy="28%" r="55%"><stop stop-color="#ff5a19" stop-opacity=".34"/><stop offset="1" stop-color="#ff5a19" stop-opacity="0"/></radialGradient><filter id="blur"><feGaussianBlur stdDeviation="18"/></filter><filter id="shadow" x="-30%" y="-30%" width="160%" height="160%"><feDropShadow dx="0" dy="14" stdDeviation="16" flood-color="#000" flood-opacity=".26"/></filter></defs><rect width="1600" height="900" fill="url(#bg)"/><rect width="1600" height="900" fill="url(#glow)"/><g opacity=".24" stroke="#8fd0cf" stroke-width="2"><path d="M0 680C270 530 470 660 720 520S1140 410 1600 520" fill="none"/><path d="M0 730C250 610 530 720 790 590S1240 500 1600 590" fill="none"/></g><g transform="translate(890 430)" filter="url(#shadow)"><circle r="250" fill="#003e46" stroke="#d9f3f1" stroke-width="4"/><ellipse rx="250" ry="86" fill="none" stroke="#b9e4e1" stroke-opacity=".55" stroke-width="3"/><ellipse rx="250" ry="160" fill="none" stroke="#b9e4e1" stroke-opacity=".34" stroke-width="2"/><ellipse rx="92" ry="250" fill="none" stroke="#b9e4e1" stroke-opacity=".5" stroke-width="3"/><ellipse rx="172" ry="250" fill="none" stroke="#b9e4e1" stroke-opacity=".28" stroke-width="2"/></g><g fill="none" stroke="#ff7b43" stroke-width="6" stroke-linecap="round" opacity=".9"><path d="M220 610C420 460 600 570 790 445S1130 310 1390 410"/><path d="M290 260C520 350 590 390 790 445S1190 560 1420 680"/></g><g fill="#fff" stroke="#ff5a19" stroke-width="8" filter="url(#shadow)"><circle cx="220" cy="610" r="24"/><circle cx="430" cy="505" r="22"/><circle cx="790" cy="445" r="34"/><circle cx="1030" cy="352" r="24"/><circle cx="1390" cy="410" r="22"/><circle cx="290" cy="260" r="22"/><circle cx="1420" cy="680" r="22"/></g><g fill="#003e46"><circle cx="220" cy="604" r="8"/><rect x="209" y="613" width="22" height="12" rx="6"/><circle cx="430" cy="500" r="7"/><rect x="420" y="508" width="20" height="11" rx="5"/><circle cx="790" cy="437" r="11"/><rect x="776" y="450" width="28" height="15" rx="7"/><circle cx="1030" cy="346" r="8"/><rect x="1019" y="355" width="22" height="12" rx="6"/><circle cx="1390" cy="404" r="7"/><rect x="1380" y="412" width="20" height="11" rx="5"/><circle cx="290" cy="254" r="7"/><rect x="280" y="262" width="20" height="11" rx="5"/><circle cx="1420" cy="674" r="7"/><rect x="1410" y="682" width="20" height="11" rx="5"/></g><g opacity=".9"><circle cx="230" cy="160" r="86" fill="#ff5a19" opacity=".12" filter="url(#blur)"/><circle cx="1340" cy="160" r="120" fill="#1fc4c0" opacity=".15" filter="url(#blur)"/></g><path d="M90 95h320" stroke="#ff5a19" stroke-width="5"/><path d="M90 95v150" stroke="#ff5a19" stroke-width="5"/></svg>